<svg xmlns="http://www.w3.org/2000/svg" version="1.1" xmlns:xlink="http://www.w3.org/1999/xlink" xmlns:svgjs="http://svgjs.dev/svgjs" width="1500" height="1500" viewBox="0 0 1500 1500"><rect width="1500" height="1500" fill="#ffffff"></rect><g transform="matrix(0.6666666666666666,0,0,0.6666666666666666,249.78425655976667,249.78425655976673)"><svg viewBox="0 0 343 343" data-background-color="#ffffff" preserveAspectRatio="xMidYMid meet" height="1500" width="1500" xmlns="http://www.w3.org/2000/svg" xmlns:xlink="http://www.w3.org/1999/xlink"><g id="tight-bounds" transform="matrix(1,0,0,1,0.0740000000000407,0.07400000000001228)"><svg viewBox="0 0 342.85155851775386 342.85155851775386" height="342.85155851775386" width="342.85155851775386"><g><svg></svg></g><g><svg viewBox="0 0 342.85155851775386 342.85155851775386" height="342.85155851775386" width="342.85155851775386"><g><path d="M0 171.426c0-94.676 76.75-171.426 171.426-171.426 94.676 0 171.426 76.75 171.426 171.426 0 94.676-76.75 171.426-171.426 171.426-94.676 0-171.426-76.75-171.426-171.426zM171.426 339.882c93.036 0 168.457-75.421 168.456-168.456 0-93.036-75.421-168.457-168.456-168.457-93.036 0-168.457 75.421-168.457 168.457 0 93.036 75.421 168.457 168.457 168.456z" data-fill-palette-color="tertiary" fill="#ae0404" stroke="transparent"></path><ellipse rx="164.56874808852186" ry="164.56874808852186" cx="171.42577925887693" cy="171.42577925887693" fill="#ae0404" stroke="transparent" stroke-width="0" fill-opacity="1" data-fill-palette-color="tertiary"></ellipse></g><g transform="matrix(1,0,0,1,64.84655864529837,128.32483766028895)"><svg viewBox="0 0 213.1584412271571 86.20188319717596" height="86.20188319717596" width="213.1584412271571"><g><svg viewBox="0 0 213.1584412271571 86.20188319717596" height="86.20188319717596" width="213.1584412271571"><g><svg viewBox="0 0 213.1584412271571 86.20188319717596" height="86.20188319717596" width="213.1584412271571"><g transform="matrix(1,0,0,1,0,53.27622206389489)"><svg viewBox="0 0 213.1584412271571 32.92566113328106" height="32.92566113328106" width="213.1584412271571"><g id="textblocktransform"><svg viewBox="0 0 213.1584412271571 32.92566113328106" height="32.92566113328106" width="213.1584412271571" id="textblock"><g><svg viewBox="0 0 213.1584412271571 32.92566113328106" height="32.92566113328106" width="213.1584412271571"><g transform="matrix(1,0,0,1,0,0)"><svg width="213.1584412271571" viewBox="3.53 -36.88 242.1 37.410000000000004" height="32.92566113328106" data-palette-color="#ffffff"><path d="M3.53-36.88L15.78-36.88Q19.2-36.88 21.59-35.94 23.98-35 25.24-33.05 26.5-31.1 26.5-28.1L26.5-28.1Q26.5-25.25 25.34-23.34 24.18-21.43 22.36-20.44 20.55-19.45 18.6-19.35L18.6-19.35Q20.73-19.3 22.73-18.39 24.73-17.48 26.01-15.49 27.3-13.5 27.3-10.2L27.3-10.2Q27.3-6.98 26.01-4.69 24.73-2.4 22.13-1.2 19.53 0 15.58 0L15.58 0 3.53 0 3.53-36.88ZM7.65-35.55L7.65-19.63 6.2-21.08 13.78-21.08Q17.78-21.08 20-22.69 22.23-24.3 22.23-27.45L22.23-27.45Q22.23-29.55 21.3-30.79 20.38-32.02 18.69-32.58 17-33.13 14.75-33.13L14.75-33.13 5.73-33.13 7.65-35.55ZM5.73-3.75L14.75-3.75Q18.55-3.75 20.75-5.43 22.95-7.1 22.95-10.43L22.95-10.43Q22.95-12.45 22.23-13.79 21.5-15.13 20.25-15.9 19-16.68 17.39-17.01 15.78-17.35 14-17.35L14-17.35 6.2-17.35 7.65-18.8 7.65-1.33 5.73-3.75ZM43.97 0.48L43.97 0.48Q41.12 0.48 39.22-0.51 37.32-1.5 36.21-3.08 35.1-4.65 34.63-6.49 34.17-8.33 34.17-10.03L34.17-10.03Q34.17-10.98 34.17-11.99 34.17-13 34.17-14.03L34.17-14.03 34.17-26.55 38.45-26.55 38.45-14.58Q38.45-13.65 38.45-12.75 38.45-11.85 38.45-11.05L38.45-11.05Q38.45-9.03 39.01-7.3 39.57-5.58 40.97-4.51 42.37-3.45 44.82-3.45L44.82-3.45Q47.12-3.45 48.85-4.84 50.57-6.23 51.55-8.31 52.52-10.4 52.52-12.48L52.52-12.48 55-11.45Q55-9.25 54.22-7.14 53.45-5.03 52.01-3.3 50.57-1.58 48.53-0.55 46.5 0.48 43.97 0.48ZM56.77 0L52.52 0 52.52-26.55 56.77-26.55 56.77 0ZM67-3.85L66.97-3.9 82.72-3.9 82.72 0 62.22 0 62.22-3.75 77.8-22.75 77.82-22.65 62.84-22.65 62.84-26.55 82.5-26.55 82.5-22.8 67-3.85ZM91.22-3.85L91.19-3.9 106.94-3.9 106.94 0 86.44 0 86.44-3.75 102.02-22.75 102.04-22.65 87.07-22.65 87.07-26.55 106.72-26.55 106.72-22.8 91.22-3.85ZM135.86 0L129.26 0 123.41-36.88 127.81-36.88 132.79-1.83 132.14-1.85 140.01-36.88 145.66-36.88 153.51-1.85 152.86-1.83 157.84-36.88 162.26-36.88 156.36 0 149.79 0 142.59-33.27 143.09-33.27 135.86 0ZM175.46 0.5L175.46 0.5Q172.43 0.5 170.17-0.45 167.91-1.4 166.66-3.19 165.41-4.98 165.41-7.48L165.41-7.48Q165.41-10.08 166.76-11.81 168.11-13.55 170.56-14.53 173.01-15.5 176.26-15.83L176.26-15.83Q181.16-16.32 183.23-16.81 185.31-17.3 185.31-18.4L185.31-18.4Q185.31-18.43 185.31-18.44 185.31-18.45 185.31-18.48L185.31-18.48Q185.31-20.78 183.44-21.91 181.56-23.05 178.01-23.05L178.01-23.05Q174.31-23.05 172.26-21.76 170.21-20.48 170.21-17.6L170.21-17.6 166.01-17.6Q166.01-20.58 167.53-22.66 169.06-24.75 171.77-25.85 174.48-26.95 178.03-26.95L178.03-26.95Q181.28-26.95 183.9-25.96 186.51-24.98 188.05-23.04 189.58-21.1 189.58-18.25L189.58-18.25Q189.58-17.73 189.58-17.21 189.58-16.7 189.58-16.18L189.58-16.18 189.58-5Q189.58-4.13 189.66-3.3 189.73-2.48 189.91-1.85L189.91-1.85Q190.13-1.1 190.41-0.64 190.69-0.18 190.86 0L190.86 0 186.58 0Q186.46-0.13 186.21-0.59 185.96-1.05 185.73-1.68L185.73-1.68Q185.56-2.18 185.46-2.94 185.36-3.7 185.36-4.53L185.36-4.53 186.06-4.05Q185.28-2.7 183.8-1.68 182.31-0.65 180.21-0.08 178.11 0.5 175.46 0.5ZM176.13-3.33L176.13-3.33Q178.71-3.33 180.78-4.11 182.86-4.9 184.08-6.45 185.31-8 185.31-10.3L185.31-10.3 185.31-15.58 186.26-13.98Q184.66-13.35 182.27-12.96 179.88-12.58 177.28-12.33L177.28-12.33Q173.51-11.98 171.6-11 169.68-10.03 169.68-7.73L169.68-7.73Q169.68-5.55 171.26-4.44 172.83-3.33 176.13-3.33ZM211.73-26.55L216.13-26.55 207.23 0 201.66 0 192.56-26.55 196.96-26.55 204.78-2.25 204.11-2.25 211.73-26.55ZM245.53-11.58L221.31-11.58 221.31-15.38 241.83-15.38 241.08-14.13Q241.08-14.28 241.08-14.41 241.08-14.55 241.08-14.68L241.08-14.68Q241.08-16.98 240.12-18.89 239.16-20.8 237.26-21.95 235.36-23.1 232.56-23.1L232.56-23.1Q229.73-23.1 227.58-21.9 225.43-20.7 224.23-18.51 223.03-16.32 223.03-13.3L223.03-13.3Q223.03-10.23 224.19-8 225.36-5.78 227.51-4.58 229.66-3.38 232.61-3.38L232.61-3.38Q234.71-3.38 236.26-3.81 237.81-4.25 238.82-4.99 239.83-5.73 240.36-6.6 240.88-7.48 240.98-8.35L240.98-8.35 245.23-8.35Q245.11-6.75 244.23-5.18 243.36-3.6 241.76-2.31 240.16-1.03 237.83-0.25 235.51 0.53 232.48 0.53L232.48 0.53Q228.48 0.53 225.43-1.23 222.38-2.98 220.64-6.08 218.91-9.18 218.91-13.2L218.91-13.2Q218.91-17.28 220.66-20.36 222.41-23.45 225.48-25.2 228.56-26.95 232.51-26.95L232.51-26.95Q236.53-26.95 239.48-25.2 242.43-23.45 244.03-20.41 245.63-17.38 245.63-13.5L245.63-13.5Q245.63-13.1 245.61-12.45 245.58-11.8 245.53-11.58L245.53-11.58Z" opacity="1" transform="matrix(1,0,0,1,0,0)" fill="#ffffff" class="wordmark-text-0" data-fill-palette-color="quaternary" id="text-0"></path></svg></g></svg></g></svg></g></svg></g><g transform="matrix(1,0,0,1,50.2312796014117,0)"><svg viewBox="0 0 112.69588202433371 45.50326368619443" height="45.50326368619443" width="112.69588202433371"><g><svg xmlns="http://www.w3.org/2000/svg" xml:space="preserve" viewBox="18.884529946162036 37.599999999999966 63.15470053837926 25.500000000000064" x="0" y="0" height="45.50326368619443" width="112.69588202433371" class="icon-icon-0" data-fill-palette-color="quaternary" id="icon-0"><path fill-rule="evenodd" d="M59.3 42.5c-0.5-0.4-1.2-0.1-1.7 0-0.6 0.2-1.2 0.4-1.7 0.6-1.1 0.4-2.1 0.9-2.9 1.4l-0.2 0.2h-0.2c-0.1 0.1-0.5 0.3-0.7 0.5-0.2 0.1-0.3 0.4-0.5 0.6-0.1 0.1-0.3 0.2-0.4 0.3s-0.2 0.3-0.3 0.4-0.2 0.1-0.3 0.2-0.2 0.3-0.3 0.4-0.2 0-0.3 0.1-0.2 0.3-0.3 0.4-0.2 0-0.3 0.1c-0.1 0-0.1 0.1-0.2 0.2s-0.2 0.2-0.3 0.4c-0.1 0.1-0.2 0.3-0.3 0.4s0 0.2-0.1 0.3-0.2 0.2-0.3 0.4-0.3 0.4-0.4 0.6c-0.2 0.3-0.6 0.7-0.9 1.1-0.3 0.3-0.5 0.4-0.8 0.7s-0.6 0.7-0.9 1.1l-0.2 0.2c-0.1 0.2-0.3 0.4-0.4 0.6-0.1 0.1-0.1 0.3-0.2 0.4 0-0.2-0.1-0.1-0.2-0.1-0.1 0.1-0.1 0.2-0.2 0.3l-0.5 0.5c-0.1 0.1-0.2 0.3-0.4 0.4-0.1 0-0.3 0.2-0.4 0.3 0 0 0 0.2-0.1 0.2h-0.2c-0.1 0.1-0.2 0.2-0.2 0.3h-0.2l-0.1 0.2h-0.2v0.1h-0.2l-0.2 0.2-0.1 0.1c-0.2 0.2-0.4 0.2-0.6 0.4-0.1 0.1-0.2 0.2-0.2 0.3-0.1 0-0.1 0.1-0.2 0.1-0.1 0.1-0.4 0.3-0.6 0.4 0 0-0.2 0.1-0.3 0.1v0.1h-0.2v0.1c-0.1 0.1-0.2 0-0.3 0.1s-0.2 0.2-0.2 0.3c-0.1 0-0.1 0.1-0.2 0.1 0 0-0.2 0.1-0.3 0.1l-0.2 0.2c-0.1 0.1-0.3 0.1-0.5 0.2 0 0 0 0.1-0.1 0.1s-0.7 0.4-0.9 0.5c0 0-0.2 0.1-0.3 0.1v0.1h-0.2l-0.2 0.2c-0.1 0.1-0.4 0.3-0.6 0.4-0.1 0.1-0.2 0.1-0.5 0.2s-0.7 0.4-1.1 0.5c-0.2 0.1-0.4 0.1-0.6 0.2h-0.2c0 0.1-0.2 0.1-0.4 0.2-0.1 0.2-0.6 0.3-1.1 0.4 0 0 0 0.1-0.1 0.1-1.1 0.1-2.4 0.3-3.7 0.4h-0.9s0 0.1-0.1 0.1h-0.3c-0.1-0.1-1 0-1.3-0.1-0.8-0.1-1.9-0.4-2.9-0.7-0.2-0.1-0.4-0.1-0.6-0.1-0.1 0-0.2-0.1-0.5-0.1-0.1 0-0.1 0-0.2-0.1-0.3-0.2-0.9-0.3-1.1-0.6l-0.1-0.1c-0.1-0.1-0.2-0.5-0.2-0.6-0.1-0.2-0.2-1 0-1.4 0.1-0.3 0.2-0.4 0.5-0.7 0.4-0.4 1.1-0.3 1.8-0.1h0.2v0.1c0.7 0.2 1.3 0.4 2 0.4h0.2c0.2 0.2 1.7 0 2.3-0.1 1.1-0.1 2-0.1 2.8-0.3 0.1 0 0.1-0.1 0.3-0.1 0.3-0.1 0.5-0.1 0.9-0.2 0.2-0.1 0.4-0.1 0.6-0.2 0.1-0.1 0.1-0.1 0.3-0.1 0.1 0 0.4-0.2 0.6-0.3 0.3-0.1 0.7-0.3 1-0.4 0.1 0 0.2-0.1 0.3-0.1s0.1-0.2 0.2-0.2c0.2-0.1 0.4-0.1 0.5-0.2l0.2-0.2c0.1-0.1 0.2-0.2 0.4-0.3 0 0 0-0.1 0.1-0.1s0.2-0.2 0.3-0.2 0.1-0.2 0.2-0.2c0.2-0.1 0.4-0.1 0.5-0.2 0.1 0 0.1-0.2 0.2-0.2 0.4-0.3 1-0.6 1.4-1l0.2-0.2c0.1-0.1 0.4-0.2 0.6-0.4 0.1-0.1 0.2-0.3 0.3-0.4s0.2-0.1 0.3-0.1 0.1-0.1 0.2-0.2c0.2-0.2 0.4-0.3 0.6-0.5s0.4-0.5 0.7-0.8c0.2-0.2 0.3-0.4 0.5-0.6 0.1-0.1 0.2-0.3 0.2-0.4 0.1-0.1 0.2-0.2 0.2-0.3l0.6-0.9c0.1-0.1 0.2-0.2 0.3-0.2s0.4-0.4 0.6-0.6c0.5-0.6 1-1.1 1.5-1.7 0.1-0.1 0.4-0.4 0.4-0.6 0-0.1 0.3-0.5 0.5-0.7s0.3-0.4 0.5-0.6c0.1-0.1 0.2-0.3 0.4-0.5h0.2c0.1-0.1 0.1-0.3 0.2-0.4h0.2c0.1-0.2 0.3-0.4 0.5-0.6l0.2-0.2c0.1-0.1 0.3-0.3 0.4-0.5h0.2s0-0.2 0.1-0.2c0.1-0.1 0.2 0 0.3-0.1s0.1-0.2 0.2-0.3 0.2-0.1 0.3-0.1c0.1-0.1 0.2-0.1 0.3-0.2 0.2-0.2 0.7-0.5 1.1-0.7h0.2v-0.1h0.2v-0.1h0.2v-0.1c0.5-0.2 1-0.4 1.6-0.7 0 0 0-0.1 0.1-0.1 0.3-0.1 0.6-0.3 0.9-0.4h0.2v-0.1c0.3-0.1 0.5-0.2 0.8-0.3l0.3-0.1c0.1-0.1 0.5-0.3 0.8-0.4 0.7-0.2 1.4-0.3 2-0.4 0.1 0 0.1-0.1 0.3-0.1 0.5-0.1 1.3-0.2 1.9-0.1 0.2 0 0.4 0.1 0.8 0 1-0.3 3.2-0.3 4.4-0.3 0.6 0 1.1 0 1.6 0.1 0.1 0 0.3 0.1 0.5 0.2 0.1 0 0.1 0.1 0.2 0.2 0.2 0.1 0.3 0.1 0.5 0.2 0.1 0.1 0 0.2 0.1 0.3 0 0 0.2 0.1 0.2 0.2 0.2 0.5 0.2 1.6 0.1 2.2 0 0.1-0.1 0.2-0.2 0.4 0 0-0.1 0-0.1 0.1s-0.1 0.2-0.2 0.3c-0.2 0.2-0.4 0.8-0.5 1.1-0.1 0.2-0.1 0.3-0.1 0.5 0 0.1-0.1 0.1-0.2 0.2 0 0.1 0 0.2-0.1 0.3-0.1 0.2-0.1 0.3-0.1 0.5-0.1 0.2-0.1 0.4-0.1 0.5s-0.1 0.1-0.2 0.2v0.2c-0.1 0.1-0.1 0.3-0.2 0.6l-0.2 0.2v0.3c0 0.1-0.1 0.1-0.2 0.2-0.1 0.2-0.1 0.5-0.2 0.7 0 0.1-0.1 0.1-0.2 0.2v0.2c-0.4 0.4-0.2 1.7-0.2 2.7 0.1 0.9 0.1 1.6 0.4 2.3 0 0.1 0.1 0.1 0.1 0.2l0.1 0.1c0.1 0.1 0 0.2 0.1 0.3 0 0.1 0.2 0.1 0.2 0.2 0.2 0.3 0.4 0.7 0.7 0.9 0.1 0.2 0.3 0.3 0.5 0.4 0.3 0.3 0.6 0.7 1.1 1 0.1 0.1 0.3 0.1 0.5 0.2 0 0 0 0.1 0.1 0.1h0.1c0.1 0 0.2 0.2 0.3 0.2h0.2v0.1h0.2c0.1 0.1 0.1 0.1 0.4 0.2 0.2 0.1 0.4 0.2 0.6 0.2 0.2 0.1 0.5 0.1 0.6 0.1 0 0 0 0.1 0.1 0.1s0.3 0.1 0.5 0.1h0.5c0.1 0.1 0.7 0.3 1 0.4 0.2 0.1 0.4 0.1 0.6 0.1 0.1 0 0.2 0 0.4 0.1 0.1 0 0.2 0 0.4 0.1 0.6 0.1 2.1-0.2 2.9 0l0.2 0.2h0.4c0.8 0 1.5-0.2 2.3 0 0.5 0.1 1 0.4 1.3 0.8v0.2l0.2 0.2c0.1 0.1 0.3 0.2 0.3 0.2 0.2 0.4 0.3 0.8 0.2 1.3 0 0.1 0 0.3-0.1 0.5 0 0-0.1 0-0.1 0.1s-0.4 0.5-0.5 0.7h-0.2v0.1h-0.2v0.1h-0.2c-0.1 0.1-0.1 0.2-0.3 0.3h-0.2v0.1H80c-0.1 0.2-0.8 0.2-1.4 0.3-0.4 0.1-0.9 0.2-1.3 0.2-0.5 0-1-0.1-1.5-0.2H75s0-0.1-0.1-0.1h-0.1c-0.1 0-0.1 0-0.3-0.1-0.3 0-1-0.2-1.5-0.3-0.9-0.2-1.7-0.4-2.6-0.6-0.2-0.1-0.5-0.1-0.7-0.1 0 0 0-0.1-0.1-0.1h-0.1c-0.1 0-0.2 0-0.5-0.1 0 0 0-0.1-0.1-0.1s-0.4-0.1-0.5-0.1c-0.2-0.1-0.4-0.2-0.6-0.2-0.2-0.1-0.3-0.1-0.5-0.1-0.1 0-0.1-0.1-0.1-0.1-0.2-0.1-0.4-0.1-0.6-0.1-0.1 0-0.1-0.1-0.2-0.2-0.1 0-0.2 0-0.3-0.1-0.1 0-0.1-0.1-0.2-0.2-0.2-0.1-0.7-0.3-1-0.5-0.1 0-0.1-0.1-0.2-0.2l-0.6-0.3c-0.1 0-0.1-0.1-0.2-0.2s-0.2-0.2-0.4-0.2c-0.4-0.2-0.9-0.8-1.3-1.2l-0.2-0.2c-0.2-0.3-0.6-0.7-0.9-1-0.4-0.4-0.8-0.8-1.1-1.3 0-0.1-0.1-0.2-0.1-0.3 0 0-0.2 0-0.2-0.1v-0.2h-0.1v-0.2c-0.1-0.1-0.3-0.3-0.4-0.5v-0.2c-0.1-0.1-0.1-0.1-0.1-0.2s-0.1-0.1-0.1-0.1c-0.1-0.4-0.2-1-0.3-1.5-0.1-0.7-0.2-1.4-0.3-2.3v-0.3l0.1-0.1c0-0.1-0.1-0.1-0.1-0.3 0-0.7-0.1-1.3 0-1.8 0 0 0.1 0 0.1-0.1v-0.2l0.2-0.2c0-0.2 0-0.3 0.1-0.5 0-0.1 0.1-0.2 0.2-0.4 0-0.1 0-0.2 0.1-0.3l0.2-0.1c0.1-0.1 0.1-0.3 0.1-0.5 0-0.1 0-0.2 0.1-0.3l0.2-0.1c0-0.1 0-0.2 0.1-0.3s0.1-0.3 0.2-0.5c0 0 0.1 0 0.1-0.1-1-0.2-0.7-0.6-0.8-1" clip-rule="evenodd" fill="#ffffff" data-fill-palette-color="quaternary"></path></svg></g></svg></g><g></g></svg></g></svg></g></svg></g></svg></g><defs></defs></svg><rect width="342.85155851775386" height="342.85155851775386" fill="none" stroke="none" visibility="hidden"></rect></g></svg></g></svg>